<?xml version="1.0" standalone="no"?>
<!DOCTYPE svg PUBLIC "-//W3C//DTD SVG 20010904//EN"
 "http://www.w3.org/TR/2001/REC-SVG-20010904/DTD/svg10.dtd">
<svg version="1.0" xmlns="http://www.w3.org/2000/svg"
 width="700.000000pt" height="700.000000pt" viewBox="0 0 700.000000 700.000000"
 preserveAspectRatio="xMidYMid meet">
<metadata>
Created by potrace 1.11, written by Peter Selinger 2001-2013
</metadata>
<g transform="translate(0.000000,700.000000) scale(0.100000,-0.100000)"
fill="#000000" stroke="none">
<path d="M625 6989 c-78 -12 -197 -52 -262 -89 -128 -73 -245 -220 -303 -379
-64 -175 -61 23 -58 -3081 l3 -2825 28 -90 c39 -124 88 -208 171 -291 102
-102 226 -169 392 -211 65 -17 232 -18 2929 -18 l2860 0 90 28 c258 81 411
247 497 543 l23 79 3 2610 c2 2579 2 2611 -18 2675 -41 136 -68 169 -470 570
-395 395 -427 422 -559 467 l-66 22 -2600 0 c-1430 -1 -2627 -5 -2660 -10z
m5085 -389 c41 -11 94 -61 109 -103 8 -19 11 -353 11 -1050 0 -977 -1 -1024
-19 -1063 -10 -23 -36 -54 -57 -70 l-37 -29 -1801 -3 c-1260 -2 -1812 0 -1838
8 -20 6 -51 22 -68 36 -64 54 -60 -17 -60 1114 0 992 1 1032 19 1068 23 45 46
66 91 86 31 13 254 15 1825 16 1145 0 1803 -4 1825 -10z m-95 -2748 c102 -47
181 -156 205 -282 6 -34 10 -563 10 -1449 0 -1133 -3 -1405 -14 -1446 -31
-118 -101 -206 -199 -251 l-62 -29 -2130 -3 c-2112 -2 -2131 -2 -2197 18 -134
40 -224 154 -249 313 -7 45 -9 512 -6 1450 4 1489 2 1419 55 1523 30 60 68
101 119 131 95 56 -51 52 2268 50 l2150 -2 50 -23z"/>
<path d="M4280 5445 l0 -975 485 0 485 0 0 975 0 975 -485 0 -485 0 0 -975z"/>
</g>
</svg>
